<?xml version="1.0" encoding="UTF-8"?>
<svg xmlns="http://www.w3.org/2000/svg" xmlns:xlink="http://www.w3.org/1999/xlink" width="612pt" height="792pt" viewBox="0 0 612 792" version="1.1">
<defs>
<clipPath id="clip1">
  <path d="M 151 372 L 238 372 L 238 465 L 151 465 Z M 151 372 "/>
</clipPath>
<clipPath id="clip2">
  <path d="M 151.796875 428.21875 C 151.796875 448.304688 167.648438 464.585938 187.199219 464.585938 C 187.199219 464.585938 280.171875 464.597656 281.488281 464.597656 L 282.035156 363.351563 C 283.1875 343.191406 260.175781 327.285156 243.652344 327.285156 L 151.75 326.988281 Z M 151.796875 428.21875 "/>
</clipPath>
<clipPath id="clip3">
  <path d="M 213 326 L 249 326 L 249 358 L 213 358 Z M 213 326 "/>
</clipPath>
<clipPath id="clip4">
  <path d="M 151.796875 428.21875 C 151.796875 448.304688 167.648438 464.585938 187.199219 464.585938 C 187.199219 464.585938 280.171875 464.597656 281.488281 464.597656 L 282.035156 363.351563 C 283.1875 343.191406 260.175781 327.285156 243.652344 327.285156 L 151.75 326.988281 Z M 151.796875 428.21875 "/>
</clipPath>
<clipPath id="clip5">
  <path d="M 260 376 L 282 376 L 282 399 L 260 399 Z M 260 376 "/>
</clipPath>
<clipPath id="clip6">
  <path d="M 151.796875 428.21875 C 151.796875 448.304688 167.648438 464.585938 187.199219 464.585938 C 187.199219 464.585938 280.171875 464.597656 281.488281 464.597656 L 282.035156 363.351563 C 283.1875 343.191406 260.175781 327.285156 243.652344 327.285156 L 151.75 326.988281 Z M 151.796875 428.21875 "/>
</clipPath>
<clipPath id="clip7">
  <path d="M 221 405 L 283 405 L 283 465 L 221 465 Z M 221 405 "/>
</clipPath>
<clipPath id="clip8">
  <path d="M 151.796875 428.21875 C 151.796875 448.304688 167.648438 464.585938 187.199219 464.585938 C 187.199219 464.585938 280.171875 464.597656 281.488281 464.597656 L 282.035156 363.351563 C 283.1875 343.191406 260.175781 327.285156 243.652344 327.285156 L 151.75 326.988281 Z M 151.796875 428.21875 "/>
</clipPath>
</defs>
<g id="surface1">
<path style=" stroke:none;fill-rule:nonzero;fill:rgb(49.01886%,72.941589%,0%);fill-opacity:1;" d="M 151.75 326.988281 L 243.652344 327.289063 C 260.179688 327.289063 283.1875 343.191406 282.035156 363.347656 L 281.488281 464.597656 C 280.171875 464.597656 187.199219 464.585938 187.199219 464.585938 C 167.644531 464.585938 151.796875 448.304688 151.796875 428.21875 Z M 151.75 326.988281 "/>
<g clip-path="url(#clip1)" clip-rule="nonzero">
<g clip-path="url(#clip2)" clip-rule="nonzero">
<path style=" stroke:none;fill-rule:evenodd;fill:rgb(100%,100%,100%);fill-opacity:1;" d="M 195.46875 372.476563 C 195.46875 372.476563 164.300781 408.8125 156.488281 428.554688 C 156.488281 428.554688 148.445313 446.914063 148.027344 452.78125 C 147.609375 458.648438 153.136719 464.179688 156.910156 465.648438 C 160.683594 467.113281 174.648438 469.984375 190.019531 459.570313 C 208.210938 447.246094 237.773438 406 237.773438 406 L 236.328125 405.714844 C 236.328125 405.714844 208.980469 436.664063 201.285156 441.300781 C 201.285156 441.300781 193.296875 447.613281 187.777344 447.613281 C 187.777344 447.613281 181.367188 448.300781 183.4375 439.824219 C 183.4375 439.824219 187.421875 427.964844 197.636719 413.292969 C 205.195313 402.441406 215.839844 386.734375 224.855469 373.554688 C 225.476563 372.648438 195.46875 372.476563 195.46875 372.476563 "/>
</g>
</g>
<g clip-path="url(#clip3)" clip-rule="nonzero">
<g clip-path="url(#clip4)" clip-rule="nonzero">
<path style=" stroke:none;fill-rule:evenodd;fill:rgb(100%,100%,100%);fill-opacity:1;" d="M 213.859375 339.667969 C 213.859375 330.097656 221.621094 322.332031 231.195313 322.332031 C 240.769531 322.332031 248.53125 330.097656 248.53125 339.667969 C 248.53125 349.242188 240.769531 357.007813 231.195313 357.007813 C 221.621094 357.007813 213.859375 349.242188 213.859375 339.667969 "/>
</g>
</g>
<g clip-path="url(#clip5)" clip-rule="nonzero">
<g clip-path="url(#clip6)" clip-rule="nonzero">
<path style=" stroke:none;fill-rule:evenodd;fill:rgb(100%,100%,100%);fill-opacity:1;" d="M 260.039063 387.636719 C 260.039063 381.683594 264.863281 376.859375 270.816406 376.859375 C 276.769531 376.859375 281.59375 381.683594 281.59375 387.636719 C 281.59375 393.585938 276.769531 398.410156 270.816406 398.410156 C 264.863281 398.410156 260.039063 393.585938 260.039063 387.636719 "/>
</g>
</g>
<g clip-path="url(#clip7)" clip-rule="nonzero">
<g clip-path="url(#clip8)" clip-rule="nonzero">
<path style=" stroke:none;fill-rule:evenodd;fill:rgb(100%,100%,100%);fill-opacity:1;" d="M 253.703125 405.027344 C 253.703125 405.027344 232.8125 429.375 227.582031 442.601563 C 227.582031 442.601563 222.191406 454.902344 221.910156 458.835938 C 221.628906 462.765625 225.335938 466.472656 227.863281 467.457031 C 230.390625 468.4375 239.75 470.363281 250.050781 463.382813 C 262.238281 455.128906 282.050781 427.488281 282.050781 427.488281 L 281.082031 427.296875 C 281.082031 427.296875 262.753906 448.039063 257.597656 451.140625 C 257.597656 451.140625 252.246094 455.371094 248.546875 455.371094 C 248.546875 455.371094 244.25 455.835938 245.636719 450.152344 C 245.636719 450.152344 248.308594 442.207031 255.152344 432.378906 C 260.21875 425.101563 267.351563 414.578125 273.390625 405.746094 C 273.808594 405.136719 253.703125 405.027344 253.703125 405.027344 "/>
</g>
</g>
<path style=" stroke:none;fill-rule:evenodd;fill:rgb(13.699341%,12.298584%,12.599182%);fill-opacity:1;" d="M 295.261719 445.679688 L 298.261719 445.679688 L 298.261719 464.742188 L 295.261719 464.742188 Z M 295.261719 445.679688 "/>
<path style=" stroke:none;fill-rule:evenodd;fill:rgb(13.699341%,12.298584%,12.599182%);fill-opacity:1;" d="M 301.203125 464.742188 L 301.203125 445.679688 L 303.835938 445.679688 L 307.578125 457.070313 C 307.648438 457.289063 307.734375 457.578125 307.835938 457.9375 C 307.9375 458.300781 308.042969 458.683594 308.144531 459.097656 C 308.050781 458.546875 307.972656 458.03125 307.910156 457.5625 C 307.847656 457.09375 307.816406 456.75 307.816406 456.527344 L 307.816406 445.679688 L 310.570313 445.679688 L 310.570313 464.742188 L 307.816406 464.742188 L 304.21875 454.210938 C 304.203125 454.164063 304.179688 454.097656 304.152344 454.011719 C 303.90625 453.289063 303.722656 452.667969 303.597656 452.136719 C 303.707031 452.804688 303.785156 453.363281 303.84375 453.804688 C 303.898438 454.25 303.929688 454.574219 303.929688 454.773438 L 303.929688 464.742188 Z M 301.203125 464.742188 "/>
<path style=" stroke:none;fill-rule:evenodd;fill:rgb(13.699341%,12.298584%,12.599182%);fill-opacity:1;" d="M 311.886719 448.433594 L 311.886719 445.679688 L 320.933594 445.679688 L 320.933594 448.433594 L 317.882813 448.433594 L 317.882813 464.742188 L 314.9375 464.742188 L 314.9375 448.433594 Z M 311.886719 448.433594 "/>
<path style=" stroke:none;fill-rule:evenodd;fill:rgb(13.699341%,12.298584%,12.599182%);fill-opacity:1;" d="M 322.261719 464.742188 L 322.261719 445.679688 L 329.929688 445.679688 L 329.929688 448.433594 L 325.203125 448.433594 L 325.203125 453.429688 L 328.609375 453.429688 L 328.609375 456.183594 L 325.203125 456.183594 L 325.203125 461.878906 L 329.929688 461.878906 L 329.929688 464.742188 Z M 322.261719 464.742188 "/>
<path style=" stroke:none;fill-rule:evenodd;fill:rgb(13.699341%,12.298584%,12.599182%);fill-opacity:1;" d="M 335.136719 456.722656 L 335.136719 464.742188 L 332.195313 464.742188 L 332.195313 445.679688 L 336.515625 445.679688 C 338.132813 445.679688 339.300781 446.113281 340.023438 446.984375 C 340.742188 447.855469 341.105469 449.253906 341.105469 451.1875 C 341.105469 452.382813 340.957031 453.347656 340.667969 454.085938 C 340.378906 454.824219 339.902344 455.421875 339.242188 455.878906 L 341.402344 464.742188 L 338.359375 464.742188 L 336.542969 456.722656 Z M 335.136719 448.433594 L 335.136719 453.96875 L 336.304688 453.96875 C 336.980469 453.96875 337.449219 453.765625 337.710938 453.355469 C 337.976563 452.949219 338.109375 452.191406 338.109375 451.082031 C 338.109375 450.082031 337.96875 449.390625 337.691406 449.007813 C 337.414063 448.625 336.917969 448.433594 336.199219 448.433594 Z M 335.136719 448.433594 "/>
<path style=" stroke:none;fill-rule:evenodd;fill:rgb(13.699341%,12.298584%,12.599182%);fill-opacity:1;" d="M 343.5 464.742188 L 343.5 445.679688 L 346.136719 445.679688 L 349.878906 457.070313 C 349.949219 457.289063 350.035156 457.578125 350.136719 457.9375 C 350.238281 458.300781 350.339844 458.683594 350.445313 459.097656 C 350.347656 458.546875 350.269531 458.03125 350.207031 457.5625 C 350.148438 457.09375 350.117188 456.75 350.117188 456.527344 L 350.117188 445.679688 L 352.871094 445.679688 L 352.871094 464.742188 L 350.117188 464.742188 L 346.519531 454.210938 C 346.503906 454.164063 346.480469 454.097656 346.453125 454.011719 C 346.207031 453.289063 346.023438 452.667969 345.898438 452.136719 C 346.003906 452.804688 346.085938 453.363281 346.144531 453.804688 C 346.199219 454.25 346.230469 454.574219 346.230469 454.773438 L 346.230469 464.742188 Z M 343.5 464.742188 "/>
<path style=" stroke:none;fill-rule:evenodd;fill:rgb(13.699341%,12.298584%,12.599182%);fill-opacity:1;" d="M 355.511719 450.082031 C 355.511719 448.582031 355.917969 447.402344 356.738281 446.554688 C 357.554688 445.699219 358.683594 445.273438 360.125 445.273438 C 361.488281 445.273438 362.566406 445.710938 363.363281 446.585938 C 364.15625 447.460938 364.554688 448.652344 364.554688 450.160156 L 364.554688 459.929688 C 364.554688 461.597656 364.160156 462.886719 363.375 463.789063 C 362.589844 464.695313 361.46875 465.144531 360.019531 465.144531 C 358.550781 465.144531 357.433594 464.695313 356.664063 463.796875 C 355.894531 462.894531 355.511719 461.582031 355.511719 459.851563 Z M 361.53125 460.535156 L 361.53125 449.898438 C 361.53125 449.238281 361.402344 448.742188 361.148438 448.414063 C 360.894531 448.085938 360.519531 447.921875 360.019531 447.921875 C 359.519531 447.921875 359.144531 448.085938 358.886719 448.414063 C 358.632813 448.742188 358.507813 449.238281 358.507813 449.898438 L 358.507813 460.535156 C 358.507813 461.195313 358.632813 461.691406 358.886719 462.027344 C 359.144531 462.359375 359.519531 462.527344 360.019531 462.527344 C 360.519531 462.527344 360.894531 462.359375 361.148438 462.027344 C 361.402344 461.691406 361.53125 461.195313 361.53125 460.535156 "/>
<path style=" stroke:none;fill-rule:evenodd;fill:rgb(13.699341%,12.298584%,12.599182%);fill-opacity:1;" d="M 366.308594 459.902344 L 369.113281 459.476563 C 369.164063 460.445313 369.351563 461.160156 369.667969 461.621094 C 369.984375 462.082031 370.449219 462.3125 371.066406 462.3125 C 371.601563 462.3125 372.035156 462.140625 372.371094 461.804688 C 372.703125 461.464844 372.871094 461.019531 372.871094 460.464844 C 372.871094 459.472656 372.082031 458.1875 370.5 456.617188 L 370.222656 456.335938 C 368.675781 454.792969 367.679688 453.601563 367.242188 452.769531 C 366.800781 451.941406 366.582031 451.058594 366.582031 450.128906 C 366.582031 448.785156 367.023438 447.652344 367.90625 446.734375 C 368.789063 445.8125 369.867188 445.355469 371.144531 445.355469 C 372.382813 445.355469 373.398438 445.78125 374.191406 446.628906 C 374.980469 447.480469 375.433594 448.632813 375.546875 450.085938 L 372.675781 450.496094 C 372.621094 449.640625 372.46875 449.03125 372.21875 448.664063 C 371.96875 448.292969 371.582031 448.109375 371.066406 448.109375 C 370.589844 448.109375 370.210938 448.269531 369.925781 448.589844 C 369.636719 448.910156 369.496094 449.339844 369.496094 449.875 C 369.496094 450.980469 370.417969 452.425781 372.265625 454.210938 L 372.4375 454.378906 C 373.792969 455.699219 374.679688 456.777344 375.101563 457.609375 C 375.523438 458.445313 375.734375 459.378906 375.734375 460.417969 C 375.734375 461.804688 375.300781 462.945313 374.441406 463.835938 C 373.582031 464.726563 372.492188 465.171875 371.171875 465.171875 C 369.714844 465.171875 368.558594 464.707031 367.699219 463.777344 C 366.84375 462.84375 366.378906 461.550781 366.308594 459.902344 "/>
<path style=" stroke:none;fill-rule:evenodd;fill:rgb(13.699341%,12.298584%,12.599182%);fill-opacity:1;" d="M 295.261719 434.242188 L 295.261719 415.179688 L 299.445313 415.179688 C 301.0625 415.179688 302.257813 415.605469 303.035156 416.457031 C 303.8125 417.308594 304.199219 418.628906 304.199219 420.414063 L 304.199219 428.929688 C 304.199219 430.78125 303.832031 432.132813 303.09375 432.976563 C 302.355469 433.820313 301.183594 434.242188 299.578125 434.242188 Z M 298.179688 431.433594 L 299.671875 431.433594 C 300.191406 431.433594 300.574219 431.269531 300.824219 430.945313 C 301.078125 430.621094 301.203125 430.113281 301.203125 429.429688 L 301.203125 420.253906 C 301.203125 419.472656 301.011719 418.898438 300.632813 418.535156 C 300.253906 418.171875 299.660156 417.988281 298.851563 417.988281 L 298.179688 417.988281 Z M 298.179688 431.433594 "/>
<path style=" stroke:none;fill-rule:evenodd;fill:rgb(13.699341%,12.298584%,12.599182%);fill-opacity:1;" d="M 306.84375 434.242188 L 306.84375 415.179688 L 314.511719 415.179688 L 314.511719 417.933594 L 309.785156 417.933594 L 309.785156 422.929688 L 313.191406 422.929688 L 313.191406 425.683594 L 309.785156 425.683594 L 309.785156 431.378906 L 314.511719 431.378906 L 314.511719 434.242188 Z M 306.84375 434.242188 "/>
<path style=" stroke:none;fill-rule:evenodd;fill:rgb(13.699341%,12.298584%,12.599182%);fill-opacity:1;" d="M 322.261719 415.179688 L 325.257813 415.179688 L 325.257813 434.242188 L 322.261719 434.242188 Z M 322.261719 415.179688 "/>
<path style=" stroke:none;fill-rule:evenodd;fill:rgb(13.699341%,12.298584%,12.599182%);fill-opacity:1;" d="M 328.203125 434.242188 L 328.203125 415.179688 L 332.117188 415.179688 L 334.03125 425.738281 C 334.109375 426.160156 334.171875 426.613281 334.210938 427.09375 C 334.25 427.582031 334.269531 428.082031 334.269531 428.597656 C 334.269531 428.160156 334.292969 427.707031 334.34375 427.242188 C 334.390625 426.773438 334.460938 426.28125 334.546875 425.765625 L 336.382813 415.179688 L 340.351563 415.179688 L 340.351563 434.242188 L 337.597656 434.242188 L 337.597656 422.207031 C 337.597656 421.863281 337.617188 421.402344 337.65625 420.820313 C 337.695313 420.242188 337.75 419.59375 337.820313 418.882813 C 337.777344 419.136719 337.722656 419.488281 337.648438 419.9375 C 337.511719 420.792969 337.414063 421.339844 337.359375 421.585938 L 334.957031 434.242188 L 333.488281 434.242188 L 331.191406 421.574219 C 331.105469 421.0625 331.011719 420.507813 330.910156 419.898438 C 330.808594 419.292969 330.75 418.953125 330.730469 418.882813 C 330.792969 419.535156 330.839844 420.140625 330.875 420.710938 C 330.910156 421.277344 330.929688 421.773438 330.929688 422.207031 L 330.929688 434.242188 Z M 328.203125 434.242188 "/>
<path style=" stroke:none;fill-rule:evenodd;fill:rgb(13.699341%,12.298584%,12.599182%);fill-opacity:1;" d="M 343.292969 434.242188 L 343.292969 415.179688 L 347.609375 415.179688 C 349.222656 415.179688 350.390625 415.613281 351.113281 416.484375 C 351.839844 417.355469 352.203125 418.757813 352.203125 420.691406 C 352.203125 422.492188 351.851563 423.910156 351.148438 424.941406 C 350.445313 425.976563 349.480469 426.492188 348.257813 426.492188 L 346.238281 426.492188 L 346.238281 434.242188 Z M 346.238281 423.765625 L 347.398438 423.765625 C 348.085938 423.765625 348.558594 423.554688 348.816406 423.136719 C 349.078125 422.71875 349.207031 421.921875 349.207031 420.746094 C 349.207031 419.664063 349.070313 418.921875 348.796875 418.527344 C 348.523438 418.132813 348.023438 417.933594 347.292969 417.933594 L 346.238281 417.933594 Z M 346.238281 423.765625 "/>
<path style=" stroke:none;fill-rule:evenodd;fill:rgb(13.699341%,12.298584%,12.599182%);fill-opacity:1;" d="M 354.023438 415.179688 L 357.023438 415.179688 L 357.023438 429.9375 C 357.023438 430.492188 357.164063 430.933594 357.453125 431.265625 C 357.738281 431.59375 358.113281 431.757813 358.582031 431.757813 C 359.046875 431.757813 359.414063 431.59375 359.675781 431.269531 C 359.941406 430.945313 360.074219 430.5 360.074219 429.9375 L 360.074219 415.179688 L 363.070313 415.179688 L 363.070313 429.425781 C 363.070313 431.105469 362.679688 432.394531 361.902344 433.292969 C 361.125 434.195313 360.011719 434.648438 358.558594 434.648438 C 357.09375 434.648438 355.96875 434.195313 355.191406 433.289063 C 354.414063 432.382813 354.023438 431.070313 354.023438 429.34375 Z M 354.023438 415.179688 "/>
<path style=" stroke:none;fill-rule:evenodd;fill:rgb(13.699341%,12.298584%,12.599182%);fill-opacity:1;" d="M 365.882813 434.242188 L 365.882813 415.179688 L 373.550781 415.179688 L 373.550781 417.933594 L 368.824219 417.933594 L 368.824219 422.929688 L 372.230469 422.929688 L 372.230469 425.683594 L 368.824219 425.683594 L 368.824219 431.378906 L 373.550781 431.378906 L 373.550781 434.242188 Z M 365.882813 434.242188 "/>
<path style=" stroke:none;fill-rule:evenodd;fill:rgb(13.699341%,12.298584%,12.599182%);fill-opacity:1;" d="M 374.949219 429.402344 L 377.753906 428.976563 C 377.804688 429.945313 377.988281 430.660156 378.304688 431.121094 C 378.625 431.582031 379.089844 431.8125 379.703125 431.8125 C 380.238281 431.8125 380.675781 431.640625 381.011719 431.304688 C 381.34375 430.964844 381.511719 430.519531 381.511719 429.964844 C 381.511719 428.972656 380.722656 427.6875 379.140625 426.117188 L 378.863281 425.835938 C 377.316406 424.292969 376.320313 423.101563 375.878906 422.269531 C 375.4375 421.441406 375.21875 420.558594 375.21875 419.628906 C 375.21875 418.285156 375.660156 417.152344 376.546875 416.234375 C 377.429688 415.3125 378.507813 414.855469 379.78125 414.855469 C 381.023438 414.855469 382.039063 415.28125 382.828125 416.128906 C 383.621094 416.980469 384.074219 418.132813 384.1875 419.585938 L 381.3125 419.996094 C 381.261719 419.140625 381.109375 418.53125 380.859375 418.164063 C 380.609375 417.792969 380.222656 417.609375 379.707031 417.609375 C 379.230469 417.609375 378.851563 417.769531 378.5625 418.089844 C 378.277344 418.410156 378.136719 418.839844 378.136719 419.375 C 378.136719 420.480469 379.058594 421.925781 380.90625 423.710938 L 381.078125 423.878906 C 382.429688 425.199219 383.316406 426.277344 383.738281 427.109375 C 384.164063 427.945313 384.371094 428.878906 384.371094 429.917969 C 384.371094 431.304688 383.941406 432.445313 383.082031 433.335938 C 382.21875 434.226563 381.132813 434.671875 379.8125 434.671875 C 378.355469 434.671875 377.195313 434.207031 376.339844 433.277344 C 375.484375 432.34375 375.019531 431.050781 374.949219 429.402344 "/>
<path style=" stroke:none;fill-rule:evenodd;fill:rgb(13.699341%,12.298584%,12.599182%);fill-opacity:1;" d="M 384.726563 417.933594 L 384.726563 415.179688 L 393.773438 415.179688 L 393.773438 417.933594 L 390.71875 417.933594 L 390.71875 434.242188 L 387.777344 434.242188 L 387.777344 417.933594 Z M 384.726563 417.933594 "/>
<path style=" stroke:none;fill-rule:evenodd;fill:rgb(13.699341%,12.298584%,12.599182%);fill-opacity:1;" d="M 394.75 419.582031 C 394.75 418.082031 395.15625 416.902344 395.976563 416.054688 C 396.792969 415.199219 397.921875 414.773438 399.363281 414.773438 C 400.726563 414.773438 401.804688 415.210938 402.601563 416.085938 C 403.394531 416.960938 403.792969 418.152344 403.792969 419.660156 L 403.792969 429.429688 C 403.792969 431.097656 403.402344 432.386719 402.613281 433.289063 C 401.828125 434.195313 400.710938 434.644531 399.257813 434.644531 C 397.789063 434.644531 396.671875 434.195313 395.902344 433.296875 C 395.132813 432.394531 394.75 431.082031 394.75 429.351563 Z M 400.769531 430.035156 L 400.769531 419.398438 C 400.769531 418.738281 400.644531 418.242188 400.390625 417.914063 C 400.136719 417.585938 399.757813 417.421875 399.257813 417.421875 C 398.757813 417.421875 398.382813 417.585938 398.128906 417.914063 C 397.871094 418.242188 397.746094 418.738281 397.746094 419.398438 L 397.746094 430.035156 C 397.746094 430.695313 397.871094 431.191406 398.128906 431.527344 C 398.382813 431.859375 398.757813 432.027344 399.257813 432.027344 C 399.757813 432.027344 400.136719 431.859375 400.390625 431.527344 C 400.644531 431.191406 400.769531 430.695313 400.769531 430.035156 "/>
<path style=" stroke:none;fill-rule:evenodd;fill:rgb(13.699341%,12.298584%,12.599182%);fill-opacity:1;" d="M 405.550781 429.402344 L 408.351563 428.976563 C 408.40625 429.945313 408.589844 430.660156 408.90625 431.121094 C 409.222656 431.582031 409.6875 431.8125 410.304688 431.8125 C 410.839844 431.8125 411.277344 431.640625 411.609375 431.304688 C 411.945313 430.964844 412.109375 430.519531 412.109375 429.964844 C 412.109375 428.972656 411.320313 427.6875 409.738281 426.117188 L 409.464844 425.835938 C 407.914063 424.292969 406.917969 423.101563 406.480469 422.269531 C 406.039063 421.441406 405.820313 420.558594 405.820313 419.628906 C 405.820313 418.285156 406.261719 417.152344 407.144531 416.234375 C 408.027344 415.3125 409.109375 414.855469 410.382813 414.855469 C 411.621094 414.855469 412.636719 415.28125 413.429688 416.128906 C 414.222656 416.980469 414.671875 418.132813 414.785156 419.585938 L 411.914063 419.996094 C 411.863281 419.140625 411.710938 418.53125 411.457031 418.164063 C 411.207031 417.792969 410.824219 417.609375 410.304688 417.609375 C 409.828125 417.609375 409.449219 417.769531 409.164063 418.089844 C 408.878906 418.410156 408.734375 418.839844 408.734375 419.375 C 408.734375 420.480469 409.660156 421.925781 411.507813 423.710938 L 411.679688 423.878906 C 413.03125 425.199219 413.917969 426.277344 414.339844 427.109375 C 414.761719 427.945313 414.972656 428.878906 414.972656 429.917969 C 414.972656 431.304688 414.542969 432.445313 413.679688 433.335938 C 412.820313 434.226563 411.730469 434.671875 410.410156 434.671875 C 408.953125 434.671875 407.796875 434.207031 406.941406 433.277344 C 406.082031 432.34375 405.621094 431.050781 405.550781 429.402344 "/>
<path style=" stroke:none;fill-rule:evenodd;fill:rgb(13.699341%,12.298584%,12.599182%);fill-opacity:1;" d="M 295.261719 403.742188 L 295.261719 384.679688 L 299.445313 384.679688 C 301.0625 384.679688 302.257813 385.105469 303.035156 385.957031 C 303.8125 386.808594 304.199219 388.128906 304.199219 389.914063 L 304.199219 398.429688 C 304.199219 400.28125 303.832031 401.632813 303.09375 402.476563 C 302.355469 403.320313 301.183594 403.742188 299.578125 403.742188 Z M 298.179688 400.933594 L 299.671875 400.933594 C 300.191406 400.933594 300.574219 400.769531 300.824219 400.445313 C 301.078125 400.121094 301.203125 399.613281 301.203125 398.929688 L 301.203125 389.753906 C 301.203125 388.972656 301.011719 388.398438 300.632813 388.035156 C 300.253906 387.671875 299.660156 387.488281 298.851563 387.488281 L 298.179688 387.488281 Z M 298.179688 400.933594 "/>
<path style=" stroke:none;fill-rule:evenodd;fill:rgb(13.699341%,12.298584%,12.599182%);fill-opacity:1;" d="M 306.84375 384.679688 L 309.839844 384.679688 L 309.839844 403.742188 L 306.84375 403.742188 Z M 306.84375 384.679688 "/>
<path style=" stroke:none;fill-rule:evenodd;fill:rgb(13.699341%,12.298584%,12.599182%);fill-opacity:1;" d="M 315.699219 395.722656 L 315.699219 403.742188 L 312.753906 403.742188 L 312.753906 384.679688 L 317.074219 384.679688 C 318.691406 384.679688 319.863281 385.113281 320.582031 385.984375 C 321.304688 386.855469 321.664063 388.253906 321.664063 390.1875 C 321.664063 391.382813 321.519531 392.347656 321.230469 393.085938 C 320.9375 393.824219 320.464844 394.421875 319.800781 394.878906 L 321.960938 403.742188 L 318.917969 403.742188 L 317.101563 395.722656 Z M 315.699219 387.433594 L 315.699219 392.96875 L 316.863281 392.96875 C 317.539063 392.96875 318.011719 392.765625 318.273438 392.355469 C 318.535156 391.949219 318.667969 391.191406 318.667969 390.082031 C 318.667969 389.082031 318.527344 388.390625 318.253906 388.007813 C 317.976563 387.625 317.476563 387.433594 316.757813 387.433594 Z M 315.699219 387.433594 "/>
<path style=" stroke:none;fill-rule:evenodd;fill:rgb(13.699341%,12.298584%,12.599182%);fill-opacity:1;" d="M 324.0625 403.742188 L 324.0625 384.679688 L 331.730469 384.679688 L 331.730469 387.433594 L 327.003906 387.433594 L 327.003906 392.429688 L 330.410156 392.429688 L 330.410156 395.183594 L 327.003906 395.183594 L 327.003906 400.878906 L 331.730469 400.878906 L 331.730469 403.742188 Z M 324.0625 403.742188 "/>
<path style=" stroke:none;fill-rule:evenodd;fill:rgb(13.699341%,12.298584%,12.599182%);fill-opacity:1;" d="M 333.671875 398.847656 L 333.671875 389.082031 C 333.671875 387.582031 334.078125 386.40625 334.898438 385.550781 C 335.714844 384.699219 336.84375 384.273438 338.285156 384.273438 C 339.648438 384.273438 340.726563 384.710938 341.523438 385.585938 C 342.316406 386.460938 342.714844 387.652344 342.714844 389.164063 L 342.714844 390.996094 L 339.691406 390.996094 L 339.691406 388.898438 C 339.691406 388.238281 339.566406 387.746094 339.308594 387.414063 C 339.054688 387.085938 338.679688 386.917969 338.179688 386.917969 C 337.679688 386.917969 337.304688 387.085938 337.050781 387.414063 C 336.792969 387.746094 336.667969 388.238281 336.667969 388.898438 L 336.667969 399.535156 C 336.667969 400.195313 336.792969 400.691406 337.050781 401.027344 C 337.304688 401.359375 337.679688 401.527344 338.179688 401.527344 C 338.679688 401.527344 339.054688 401.359375 339.308594 401.027344 C 339.566406 400.691406 339.691406 400.195313 339.691406 399.535156 L 339.691406 396.9375 L 342.714844 396.9375 L 342.714844 398.929688 C 342.714844 400.597656 342.320313 401.882813 341.535156 402.789063 C 340.75 403.695313 339.628906 404.148438 338.179688 404.148438 C 336.695313 404.148438 335.570313 403.699219 334.8125 402.800781 C 334.050781 401.90625 333.671875 400.589844 333.671875 398.847656 "/>
<path style=" stroke:none;fill-rule:evenodd;fill:rgb(13.699341%,12.298584%,12.599182%);fill-opacity:1;" d="M 344.890625 398.847656 L 344.890625 389.082031 C 344.890625 387.582031 345.296875 386.40625 346.117188 385.550781 C 346.933594 384.699219 348.0625 384.273438 349.503906 384.273438 C 350.867188 384.273438 351.945313 384.710938 352.742188 385.585938 C 353.535156 386.460938 353.933594 387.652344 353.933594 389.164063 L 353.933594 390.996094 L 350.910156 390.996094 L 350.910156 388.898438 C 350.910156 388.238281 350.785156 387.746094 350.53125 387.414063 C 350.277344 387.085938 349.898438 386.917969 349.398438 386.917969 C 348.898438 386.917969 348.523438 387.085938 348.269531 387.414063 C 348.015625 387.746094 347.886719 388.238281 347.886719 388.898438 L 347.886719 399.535156 C 347.886719 400.195313 348.015625 400.691406 348.269531 401.027344 C 348.523438 401.359375 348.898438 401.527344 349.398438 401.527344 C 349.898438 401.527344 350.277344 401.359375 350.53125 401.027344 C 350.785156 400.691406 350.910156 400.195313 350.910156 399.535156 L 350.910156 396.9375 L 353.933594 396.9375 L 353.933594 398.929688 C 353.933594 400.597656 353.542969 401.882813 352.753906 402.789063 C 351.96875 403.695313 350.847656 404.148438 349.398438 404.148438 C 347.914063 404.148438 346.789063 403.699219 346.03125 402.800781 C 345.269531 401.90625 344.890625 400.589844 344.890625 398.847656 "/>
<path style=" stroke:none;fill-rule:evenodd;fill:rgb(13.699341%,12.298584%,12.599182%);fill-opacity:1;" d="M 356.460938 384.679688 L 359.457031 384.679688 L 359.457031 403.742188 L 356.460938 403.742188 Z M 356.460938 384.679688 "/>
<path style=" stroke:none;fill-rule:evenodd;fill:rgb(13.699341%,12.298584%,12.599182%);fill-opacity:1;" d="M 362.050781 389.082031 C 362.050781 387.582031 362.457031 386.402344 363.277344 385.554688 C 364.09375 384.699219 365.222656 384.273438 366.664063 384.273438 C 368.027344 384.273438 369.105469 384.710938 369.902344 385.585938 C 370.695313 386.460938 371.09375 387.652344 371.09375 389.160156 L 371.09375 398.929688 C 371.09375 400.597656 370.699219 401.886719 369.914063 402.789063 C 369.128906 403.695313 368.007813 404.144531 366.558594 404.144531 C 365.089844 404.144531 363.972656 403.695313 363.203125 402.796875 C 362.433594 401.894531 362.050781 400.582031 362.050781 398.851563 Z M 368.070313 399.535156 L 368.070313 388.898438 C 368.070313 388.238281 367.945313 387.742188 367.6875 387.414063 C 367.433594 387.085938 367.058594 386.921875 366.558594 386.921875 C 366.058594 386.921875 365.683594 387.085938 365.429688 387.414063 C 365.171875 387.742188 365.046875 388.238281 365.046875 388.898438 L 365.046875 399.535156 C 365.046875 400.195313 365.171875 400.691406 365.429688 401.027344 C 365.683594 401.359375 366.058594 401.527344 366.558594 401.527344 C 367.058594 401.527344 367.433594 401.359375 367.6875 401.027344 C 367.945313 400.691406 368.070313 400.195313 368.070313 399.535156 "/>
<path style=" stroke:none;fill-rule:evenodd;fill:rgb(13.699341%,12.298584%,12.599182%);fill-opacity:1;" d="M 373.738281 403.742188 L 373.738281 384.679688 L 376.375 384.679688 L 380.117188 396.070313 C 380.1875 396.289063 380.273438 396.578125 380.375 396.9375 C 380.476563 397.300781 380.578125 397.683594 380.683594 398.097656 C 380.589844 397.546875 380.507813 397.03125 380.445313 396.5625 C 380.386719 396.09375 380.355469 395.75 380.355469 395.527344 L 380.355469 384.679688 L 383.109375 384.679688 L 383.109375 403.742188 L 380.355469 403.742188 L 376.757813 393.210938 C 376.742188 393.164063 376.71875 393.097656 376.691406 393.011719 C 376.445313 392.289063 376.261719 391.667969 376.136719 391.136719 C 376.242188 391.804688 376.324219 392.363281 376.382813 392.804688 C 376.4375 393.25 376.46875 393.574219 376.46875 393.773438 L 376.46875 403.742188 Z M 373.738281 403.742188 "/>
<path style=" stroke:none;fill-rule:evenodd;fill:rgb(13.699341%,12.298584%,12.599182%);fill-opacity:1;" d="M 391.210938 398.851563 L 391.210938 389.082031 C 391.210938 387.582031 391.617188 386.40625 392.433594 385.550781 C 393.25 384.699219 394.378906 384.273438 395.820313 384.273438 C 397.210938 384.273438 398.265625 384.6875 398.984375 385.511719 C 399.703125 386.335938 400.0625 387.554688 400.0625 389.164063 L 400.0625 390.914063 L 397.230469 390.914063 L 397.230469 388.898438 C 397.230469 388.238281 397.101563 387.746094 396.847656 387.414063 C 396.59375 387.085938 396.21875 386.917969 395.71875 386.917969 C 395.21875 386.917969 394.839844 387.085938 394.585938 387.414063 C 394.332031 387.746094 394.207031 388.238281 394.207031 388.898438 L 394.207031 399.539063 C 394.207031 400.195313 394.332031 400.695313 394.585938 401.027344 C 394.839844 401.359375 395.21875 401.527344 395.71875 401.527344 C 396.21875 401.527344 396.59375 401.359375 396.847656 401.027344 C 397.101563 400.695313 397.230469 400.195313 397.230469 399.539063 L 397.230469 396.558594 L 395.453125 396.558594 L 395.453125 394.128906 L 400.0625 394.128906 L 400.0625 403.742188 L 398.652344 403.742188 L 398.085938 402.417969 C 397.761719 403.007813 397.371094 403.445313 396.914063 403.722656 C 396.457031 404.003906 395.902344 404.148438 395.253906 404.148438 C 393.945313 404.148438 392.941406 403.695313 392.25 402.789063 C 391.554688 401.886719 391.210938 400.574219 391.210938 398.851563 "/>
<path style=" stroke:none;fill-rule:evenodd;fill:rgb(13.699341%,12.298584%,12.599182%);fill-opacity:1;" d="M 402.78125 403.742188 L 402.78125 384.679688 L 410.449219 384.679688 L 410.449219 387.433594 L 405.722656 387.433594 L 405.722656 392.429688 L 409.128906 392.429688 L 409.128906 395.183594 L 405.722656 395.183594 L 405.722656 400.878906 L 410.449219 400.878906 L 410.449219 403.742188 Z M 402.78125 403.742188 "/>
<path style=" stroke:none;fill-rule:evenodd;fill:rgb(13.699341%,12.298584%,12.599182%);fill-opacity:1;" d="M 412.738281 403.742188 L 412.738281 384.679688 L 415.375 384.679688 L 419.117188 396.070313 C 419.1875 396.289063 419.273438 396.578125 419.375 396.9375 C 419.472656 397.300781 419.578125 397.683594 419.683594 398.097656 C 419.585938 397.546875 419.507813 397.03125 419.445313 396.5625 C 419.386719 396.09375 419.355469 395.75 419.355469 395.527344 L 419.355469 384.679688 L 422.109375 384.679688 L 422.109375 403.742188 L 419.355469 403.742188 L 415.757813 393.210938 C 415.738281 393.164063 415.71875 393.097656 415.691406 393.011719 C 415.445313 392.289063 415.261719 391.667969 415.136719 391.136719 C 415.242188 391.804688 415.324219 392.363281 415.378906 392.804688 C 415.4375 393.25 415.464844 393.574219 415.464844 393.773438 L 415.464844 403.742188 Z M 412.738281 403.742188 "/>
<path style=" stroke:none;fill-rule:evenodd;fill:rgb(13.699341%,12.298584%,12.599182%);fill-opacity:1;" d="M 425.097656 403.742188 L 425.097656 384.679688 L 432.765625 384.679688 L 432.765625 387.433594 L 428.042969 387.433594 L 428.042969 392.429688 L 431.449219 392.429688 L 431.449219 395.183594 L 428.042969 395.183594 L 428.042969 400.878906 L 432.765625 400.878906 L 432.765625 403.742188 Z M 425.097656 403.742188 "/>
<path style=" stroke:none;fill-rule:evenodd;fill:rgb(13.699341%,12.298584%,12.599182%);fill-opacity:1;" d="M 437.972656 395.722656 L 437.972656 403.742188 L 435.03125 403.742188 L 435.03125 384.679688 L 439.351563 384.679688 C 440.96875 384.679688 442.136719 385.113281 442.859375 385.984375 C 443.582031 386.855469 443.941406 388.253906 443.941406 390.1875 C 443.941406 391.382813 443.796875 392.347656 443.503906 393.085938 C 443.214844 393.824219 442.738281 394.421875 442.078125 394.878906 L 444.238281 403.742188 L 441.195313 403.742188 L 439.378906 395.722656 Z M 437.972656 387.433594 L 437.972656 392.96875 L 439.140625 392.96875 C 439.816406 392.96875 440.285156 392.765625 440.550781 392.355469 C 440.8125 391.949219 440.945313 391.191406 440.945313 390.082031 C 440.945313 389.082031 440.804688 388.390625 440.53125 388.007813 C 440.253906 387.625 439.753906 387.433594 439.035156 387.433594 Z M 437.972656 387.433594 "/>
<path style=" stroke:none;fill-rule:evenodd;fill:rgb(13.699341%,12.298584%,12.599182%);fill-opacity:1;" d="M 448.871094 396.910156 L 451.109375 396.910156 L 450.109375 388.949219 L 449.925781 388.949219 Z M 444.988281 403.742188 L 448.121094 384.679688 L 451.953125 384.679688 L 455.085938 403.742188 L 452.058594 403.742188 L 451.46875 399.609375 L 448.503906 399.609375 L 447.871094 403.742188 Z M 444.988281 403.742188 "/>
<path style=" stroke:none;fill-rule:evenodd;fill:rgb(13.699341%,12.298584%,12.599182%);fill-opacity:1;" d="M 456.777344 403.742188 L 456.777344 384.679688 L 459.695313 384.679688 L 459.695313 400.988281 L 464.257813 400.988281 L 464.257813 403.742188 Z M 456.777344 403.742188 "/>
</g>
</svg>
