<svg xmlns="http://www.w3.org/2000/svg" xmlns:xlink="http://www.w3.org/1999/xlink" id="Layer_2" data-name="Layer 2" viewBox="0 0 275.89 49.17"><defs><style>      .cls-1, .cls-2, .cls-3, .cls-4, .cls-5 {        fill: none;      }      .cls-6 {        fill-rule: evenodd;      }      .cls-6, .cls-7 {        fill: #ff8c00;      }      .cls-2, .cls-3, .cls-5 {        stroke: #0062be;      }      .cls-2, .cls-5 {        stroke-width: 1.38px;      }      .cls-3 {        stroke-width: 1.12px;      }      .cls-3, .cls-5 {        stroke-linecap: round;      }      .cls-4 {        stroke: #0062b3;        stroke-width: .25px;      }      .cls-5 {        stroke-linejoin: round;      }      .cls-8 {        fill: #0062be;      }      .cls-9 {        clip-path: url(#clippath);      }    </style><clipPath id="clippath"><rect class="cls-1" x="126.09" y="6.96" width="149.8" height="33.83"></rect></clipPath></defs><g id="Layer_1-2" data-name="Layer 1"><g class="cls-9"><g><path class="cls-6" d="M130.56,35.31c1.7,1.85,3.8,3.3,6.13,4.24,2.34.94,4.85,1.35,7.37,1.21,2.52-.15,4.97-.85,7.17-2.06,2.21-1.21,4.12-2.89,5.59-4.93,1.47-2.04,2.47-4.38,2.93-6.85.45-2.47.35-5.01-.31-7.44-.65-2.43-1.84-4.67-3.48-6.58-1.64-1.91-3.68-3.43-5.98-4.46-8.25,6.53-15.7,15.29-19.43,26.87Z"></path><path class="cls-8" d="M143.07,6.96c-3.25,0-6.44.93-9.17,2.68-2.74,1.75-4.91,4.25-6.26,7.19-1.35,2.95-1.83,6.22-1.37,9.43.46,3.21,1.84,6.22,3.96,8.67,1.79-10.44,6.56-20.14,13.74-27.94-.3-.01-.59-.02-.9-.02Z"></path><path class="cls-7" d="M180.17,19.82c-.77,2.9-1.71,5.75-2.8,8.54-1.07,2.72-2.11,5.16-3.11,7.32h-2.57c-1-2.16-2.03-4.6-3.11-7.32-1.09-2.79-2.03-5.64-2.8-8.54h3.06c.25.99.53,2.05.87,3.18.34,1.13.72,2.25,1.07,3.36.35,1.11.72,2.16,1.15,3.22.43,1.06.72,1.96,1.1,2.77.35-.81.72-1.74,1.11-2.77.38-1.04.77-2.11,1.15-3.22.38-1.11.72-2.23,1.07-3.36s.63-2.16.87-3.18h2.94Z"></path><path class="cls-7" d="M184.51,16.95c-.48,0-.95-.17-1.3-.5-.18-.18-.32-.39-.41-.62-.09-.23-.13-.49-.12-.74-.01-.25.03-.5.12-.73.09-.23.23-.44.41-.62.35-.33.82-.51,1.3-.5.24,0,.48.04.7.12.22.09.43.22.6.38.18.17.32.39.42.62.09.23.13.48.12.74.01.25-.03.5-.12.74-.09.23-.23.45-.42.62-.35.33-.82.51-1.3.5ZM185.96,35.68h-2.84v-15.85h2.84v15.85Z"></path><path class="cls-7" d="M196,19.42c.98-.02,1.96.13,2.89.45.73.26,1.38.68,1.9,1.25.5.55.86,1.21,1.06,1.92.21.8.31,1.63.3,2.46v9.91l-1.03.17c-.43.07-.93.14-1.45.19-.51.06-1.15.12-1.79.17-.64.05-1.28.08-1.91.08-.83,0-1.67-.09-2.48-.27-.7-.16-1.37-.45-1.96-.87-.59-.39-1.06-.94-1.36-1.58-.33-.74-.49-1.54-.46-2.35-.02-.79.16-1.56.53-2.26.35-.62.85-1.14,1.45-1.53.67-.41,1.4-.7,2.17-.86.85-.18,1.71-.28,2.57-.27.29,0,.59.02.88.05.31,0,.6.07.88.12l.72.14.43.09v-.79c0-.47-.05-.93-.15-1.38-.09-.44-.28-.86-.56-1.22-.28-.37-.66-.67-1.08-.85-.57-.24-1.18-.35-1.79-.32-.83-.01-1.65.06-2.47.2-.54.09-1.06.24-1.57.43l-.33-2.35c.59-.23,1.21-.39,1.84-.48.91-.16,1.84-.24,2.76-.25h0ZM196.25,33.64c.67,0,1.27,0,1.79-.05.44-.02.87-.07,1.3-.17v-4.73c-.32-.13-.65-.22-1-.26-.55-.08-1.11-.11-1.67-.11-.45,0-.91.03-1.36.09-.46.05-.9.18-1.32.38-.39.18-.73.45-1,.79-.28.38-.42.85-.4,1.33-.04.41.02.82.2,1.19s.44.69.79.92c.82.44,1.74.65,2.66.6h0Z"></path><path class="cls-8" d="M213.06,12c.62,0,1.23.04,1.84.14.37.06.74.14,1.1.25l-.4,2.44c-.3-.1-.61-.19-.92-.26-.46-.1-.93-.14-1.4-.14-1.33,0-2.26.36-2.79,1.09-.56.85-.84,1.86-.8,2.88v1.41h6.12v2.38h-6.12v13.48h-2.85v-17.29c-.11-1.71.44-3.39,1.52-4.72.96-1.11,2.53-1.66,4.69-1.66ZM220.19,16.95c-.48.01-.95-.17-1.3-.5-.18-.18-.32-.39-.42-.62-.09-.23-.14-.49-.12-.74-.01-.25.03-.5.12-.74.09-.23.24-.44.42-.62.17-.17.38-.3.6-.38.22-.09.46-.13.7-.12.48-.01.95.17,1.3.5.18.18.32.39.41.62.09.23.13.48.12.73.01.25-.03.5-.12.74-.09.23-.23.45-.41.62-.35.33-.82.51-1.3.5h0ZM221.64,35.68h-2.85v-15.85h2.85v15.85Z"></path><path class="cls-8" d="M232.4,19.48c.25,0,.53.01.85.04.31,0,.62.07.93.12l.84.15c.25.05.45.1.56.14l-.47,2.47c-.37-.12-.74-.21-1.12-.29-.66-.12-1.33-.18-2-.17-.53,0-1.06.06-1.58.17-.52.12-.87.19-1.03.23v13.33h-2.85v-15.19c.82-.3,1.66-.54,2.51-.72,1.11-.21,2.23-.31,3.35-.29h0Z"></path><path class="cls-8" d="M238.34,20.27c.66-.17,1.52-.34,2.59-.52,1.23-.19,2.48-.28,3.72-.27.88-.02,1.75.12,2.57.41.67.26,1.26.67,1.74,1.2.14-.1.37-.24.67-.43.36-.21.74-.39,1.14-.53.49-.18.99-.34,1.5-.46.58-.13,1.18-.2,1.78-.19,1.03-.04,2.05.15,3,.53.74.32,1.37.85,1.82,1.51.45.7.76,1.49.89,2.31.16.98.23,1.97.22,2.97v8.87h-2.85v-8.29c0-.81-.04-1.61-.14-2.41-.06-.59-.24-1.16-.52-1.68-.23-.43-.59-.77-1.03-.99-.54-.24-1.12-.35-1.71-.32-.81-.02-1.61.11-2.37.38-.46.17-.88.41-1.27.72.17.57.29,1.15.36,1.74.09.66.13,1.32.12,1.98v8.87h-2.85v-8.29c0-.81-.04-1.61-.15-2.41-.07-.59-.26-1.16-.53-1.68-.23-.43-.6-.78-1.04-.99-.52-.23-1.1-.35-1.67-.32h-.92l-.93.08c-.3,0-.56.06-.81.11l-.49.09v13.42h-2.85v-15.41Z"></path><path class="cls-8" d="M269.82,19.42c.98-.02,1.96.13,2.89.45.71.24,1.35.66,1.85,1.22.51.55.86,1.23,1.04,1.95.22.8.32,1.63.31,2.46v9.91l-1.03.17c-.44.07-.93.14-1.49.19-.56.06-1.14.12-1.79.17-.64.05-1.28.08-1.92.08-.83,0-1.67-.09-2.48-.27-.7-.16-1.37-.46-1.96-.87-.53-.41-.95-.96-1.22-1.58-.32-.74-.48-1.54-.46-2.35-.02-.79.16-1.56.53-2.26.34-.62.84-1.15,1.45-1.53.67-.41,1.4-.7,2.17-.86.85-.18,1.71-.28,2.57-.27.3,0,.59.02.89.05.3,0,.59.07.88.12l.72.14.43.09v-.79c0-.47-.05-.93-.15-1.38-.09-.44-.28-.86-.55-1.22-.28-.37-.66-.66-1.08-.85-.57-.24-1.18-.35-1.79-.32-.83-.01-1.65.06-2.46.2-.54.09-1.07.22-1.58.41l-.34-2.35c.59-.23,1.21-.39,1.84-.48.9-.15,1.81-.23,2.73-.22ZM270.06,33.64c.67,0,1.27,0,1.79-.05.44-.02.87-.07,1.3-.17v-4.73c-.32-.13-.65-.22-.99-.26-.55-.08-1.11-.11-1.67-.11-.45,0-.91.03-1.36.09-.46.05-.91.18-1.32.38-.39.18-.73.45-.99.79-.28.38-.42.85-.4,1.33-.04.41.02.82.2,1.19.17.37.44.69.78.93.83.44,1.76.65,2.7.6h-.03Z"></path></g></g><g><rect class="cls-7" x="74.43" y="25.19" width="2.4" height="4.7" rx=".42" ry=".42"></rect><path class="cls-5" d="M38.33,35.31l6.38-15.88,5.98,15.88"></path><path class="cls-5" d="M53.29,35.31v-15.88l12.36,15.88v-15.78"></path><path class="cls-2" d="M82.83,27.52c0,4.59-2.62,8.32-7.22,8.32s-7.27-3.72-7.27-8.32,2.67-8.32,7.27-8.32,7.22,3.72,7.22,8.32Z"></path><path class="cls-5" d="M56.05,17.2h6.38"></path><path class="cls-5" d="M41.32,28.44h6.38"></path><path class="cls-5" d="M85.31,31.02c0,2.98,1.31,4.8,6.16,4.8s5.97-3.28,5.92-4.91c-.1-1.82-.95-3.4-6.02-3.98-4.99-.57-6.11-1.87-6.11-3.91.07-1.67,1.3-3.8,6.07-3.8,3.53,0,5,1.4,5.41,2.76"></path><path class="cls-3" d="M16.15,23.88h9.84"></path><path class="cls-3" d="M13.9,28.16h5.04c9.84,0,10.46,1.97,10.46,9.76,0,4.83-1.61,9.74-11.07,9.74-7.25,0-7.32-.01-7.32-.01"></path><path class="cls-3" d="M.56,32.63h12.23c9.82,0,11.43-.54,11.43,4.33,0,2.41-.61,5.62-5.32,5.62h-6.38"></path><path class="cls-3" d="M5.52,9.67c-.07-1.4.67-4.21,4.14-4.21,2.34,0,3.45,1.3,3.91,2.58.38,1.06-.03,2.18-.62,3.14L1.96,29.21"></path><path class="cls-3" d="M19,18.96h10.16"></path><path class="cls-3" d="M.8,9.7C.66,6.86,2.39.56,9.54.56c5.96,0,8.3,3.5,8.92,7.73.24,1.68-.28,3.36-1.14,4.82l-7.9,13.4"></path><path class="cls-7" d="M30.64,18.96h0c0,.79-.64,1.43-1.43,1.43h-3.59c-.79,0-1.43-.64-1.43-1.43h0c0-.79.64-1.43,1.43-1.43h3.59c.79,0,1.43.64,1.43,1.43Z"></path><path class="cls-8" d="M18.54,10.21h0c.7.38.97,1.25.59,1.95l-3.07,5.75c-.38.7-1.25.97-1.95.59h0c-.7-.38-.97-1.25-.59-1.95l3.07-5.75c.38-.7,1.25-.97,1.95-.59Z"></path><path class="cls-8" d="M15.01,32.86h0c0,.8-.65,1.44-1.44,1.44h-6.13c-.8,0-1.44-.65-1.44-1.44h0c0-.8.65-1.44,1.44-1.44h6.13c.8,0,1.44.65,1.44,1.44Z"></path><path class="cls-7" d="M7.65,19.97h0c.69.41.91,1.29.5,1.98l-3.22,5.43c-.41.69-1.29.91-1.98.5h0c-.69-.41-.91-1.29-.5-1.98l3.22-5.43c.41-.69,1.29-.91,1.98-.5Z"></path><path class="cls-8" d="M19.69,47.72h0c0,.8-.65,1.45-1.45,1.45h-4.14c-.8,0-1.45-.65-1.45-1.45h0c0-.8.65-1.45,1.45-1.45h4.14c.8,0,1.45.65,1.45,1.45Z"></path></g><line class="cls-4" x1="111.15" y1="1.73" x2="111.15" y2="47.66"></line></g></svg>